<svg width="1200" height="600" viewBox="0 0 1200 600" fill="none" xmlns="http://www.w3.org/2000/svg">
<rect width="1200" height="600" fill="#161616"/>
<path d="M418.299 260.353H369.725V300.413H411.294V310.924H369.725V362.56H358V249.843H418.299V260.353Z" fill="white"/>
<path d="M429.123 362.56V279.926H440.696V362.56H429.123ZM434.909 262.029C432.321 262.029 430.29 261.343 428.819 259.972C427.397 258.602 426.687 256.723 426.687 254.337C426.687 251.95 427.397 250.072 428.819 248.701C430.29 247.279 432.321 246.568 434.909 246.568C437.498 246.568 439.503 247.279 440.924 248.701C442.345 250.072 443.056 251.95 443.056 254.337C443.056 256.723 442.345 258.602 440.924 259.972C439.503 261.343 437.498 262.029 434.909 262.029Z" fill="white"/>
<path d="M490.126 353.649C492.613 353.649 495.405 353.294 498.501 352.583V362.712C494.643 363.575 491.065 364.007 487.766 364.007C480.203 364.007 474.417 361.976 470.407 357.914C466.397 353.802 464.393 347.303 464.393 338.417V289.523H450.384V279.926H464.393L466.296 249.843H475.965V279.926H497.435V289.523H475.965V336.818C475.965 341.032 476.473 344.358 477.488 346.795C478.503 349.232 480.026 350.984 482.056 352.05C484.137 353.116 486.827 353.649 490.126 353.649Z" fill="white"/>
<path d="M626.8 364.007C620.049 364.007 614.695 361.951 610.736 357.838C606.777 353.725 604.797 346.947 604.797 337.503V279.926H616.37V337.046C616.37 342.936 617.537 347.15 619.872 349.689C622.257 352.177 625.582 353.421 629.845 353.421C633.094 353.421 636.418 352.532 639.819 350.755C643.271 348.978 646.011 346.262 648.042 342.606V279.926H659.614V362.56H649.869L648.955 353.573H648.194C645.352 357.026 642.103 359.641 638.449 361.418C634.794 363.144 630.911 364.007 626.8 364.007Z" fill="white"/>
<path d="M732.007 325.242H686.859C687.011 332.502 687.95 338.24 689.676 342.454C691.401 346.668 693.965 349.689 697.365 351.517C700.766 353.294 705.182 354.182 710.613 354.182C715.485 354.182 721.348 353.167 728.2 351.136V361.037C724.799 362.103 721.601 362.865 718.607 363.322C715.612 363.779 712.541 364.007 709.394 364.007C701.527 364.007 695.081 362.611 690.056 359.818C685.031 356.975 681.25 352.405 678.712 346.109C676.225 339.814 674.982 331.487 674.982 321.129C674.982 306.557 677.57 295.844 682.747 288.989C687.924 282.084 695.132 278.632 704.37 278.632C713.354 278.632 720.206 282.033 724.926 288.837C729.646 295.641 732.007 306.481 732.007 321.357V325.242ZM704.293 287.314C698.863 287.314 694.624 289.523 691.579 293.94C688.584 298.306 687.011 305.973 686.859 316.94H720.739C720.637 309.426 719.901 303.485 718.531 299.119C717.211 294.752 715.358 291.706 712.973 289.98C710.638 288.202 707.745 287.314 704.293 287.314Z" fill="white"/>
<path d="M762.359 364.007C755.71 364.007 749.416 362.966 743.478 360.884V351.06C750.178 353.192 756.421 354.259 762.207 354.259C767.943 354.259 772.308 353.065 775.302 350.679C778.297 348.242 779.794 344.789 779.794 340.321C779.794 336.513 778.881 333.594 777.053 331.563C775.226 329.481 772.409 327.907 768.602 326.841L760.228 324.632C753.731 322.855 749.01 320.164 746.067 316.559C743.173 312.904 741.727 308.131 741.727 302.241C741.727 297.621 742.843 293.534 745.077 289.98C747.31 286.425 750.584 283.658 754.898 281.678C759.263 279.647 764.491 278.632 770.582 278.632C776.114 278.632 781.469 279.241 786.646 280.46V290.36C783.906 289.7 781.317 289.218 778.881 288.913C776.444 288.609 773.83 288.456 771.039 288.456C764.846 288.456 760.228 289.726 757.182 292.264C754.137 294.803 752.614 298.078 752.614 302.089C752.614 305.542 753.477 308.283 755.203 310.314C756.979 312.294 759.72 313.818 763.425 314.884L771.8 317.169C778.602 318.996 783.449 321.738 786.342 325.394C789.235 329.05 790.682 333.898 790.682 339.94C790.682 344.916 789.54 349.232 787.255 352.888C785.022 356.493 781.774 359.26 777.51 361.189C773.297 363.068 768.247 364.007 762.359 364.007Z" fill="white"/>
<path d="M833.625 353.649C836.112 353.649 838.904 353.294 842 352.583V362.712C838.143 363.575 834.564 364.007 831.265 364.007C823.702 364.007 817.916 361.976 813.906 357.914C809.896 353.802 807.892 347.303 807.892 338.417V289.523H793.883V279.926H807.892L809.795 249.843H819.464V279.926H840.934V289.523H819.464V336.818C819.464 341.032 819.972 344.358 820.987 346.795C822.002 349.232 823.525 350.984 825.555 352.05C827.636 353.116 830.326 353.649 833.625 353.649Z" fill="white"/>
<path d="M637.981 279.6C637.981 305.889 616.676 327.2 590.396 327.2C564.116 327.2 542.812 305.889 542.812 279.6C542.812 253.311 564.116 232 590.396 232C616.676 232 637.981 253.311 637.981 279.6ZM545.65 279.6C545.65 304.321 565.683 324.361 590.396 324.361C615.109 324.361 635.143 304.321 635.143 279.6C635.143 254.879 615.109 234.839 590.396 234.839C565.683 234.839 545.65 254.879 545.65 279.6Z" fill="#5D63D1"/>
<path d="M602.632 320.4C602.632 346.689 581.328 368 555.048 368C528.768 368 507.464 346.689 507.464 320.4C507.464 294.111 528.768 272.8 555.048 272.8C581.328 272.8 602.632 294.111 602.632 320.4ZM510.302 320.4C510.302 345.121 530.335 365.161 555.048 365.161C579.761 365.161 599.794 345.121 599.794 320.4C599.794 295.679 579.761 275.639 555.048 275.639C530.335 275.639 510.302 295.679 510.302 320.4Z" fill="#C7F000"/>
</svg>
