<svg width="238" height="228" viewBox="0 0 238 228" fill="none" xmlns="http://www.w3.org/2000/svg">
<g clip-path="url(#clip0_1214_85)">
<rect width="238" height="228" fill="white"/>
<path d="M71.832 120V108.8H74.232V120H71.832ZM81.5105 115.28C81.5105 114.016 80.9505 113.456 79.9745 113.456C78.9985 113.456 78.2305 114.016 78.2305 115.28V120H75.8945V111.68H78.2305V113.424H78.3265C78.4705 112.64 79.2705 111.52 80.9825 111.52C82.5985 111.52 83.8465 112.56 83.8465 114.72V120H81.5105V115.28ZM88.7519 120.16C87.0079 120.16 85.1039 118.896 85.1039 115.84C85.1039 112.784 87.0079 111.52 88.7519 111.52C89.9839 111.52 90.8959 112.16 91.1999 112.88V108.8H93.5359V120H91.1999V118.8C90.8959 119.52 89.9839 120.16 88.7519 120.16ZM89.3119 118.224C90.3359 118.224 91.2959 117.472 91.2959 115.84C91.2959 114.208 90.3359 113.456 89.3119 113.456C88.2719 113.456 87.3119 114.208 87.3119 115.84C87.3119 117.472 88.2719 118.224 89.3119 118.224ZM95.207 120V111.68H97.543V120H95.207ZM96.375 110.704C95.703 110.704 95.095 110.144 95.095 109.424C95.095 108.688 95.703 108.128 96.375 108.128C97.047 108.128 97.655 108.688 97.655 109.424C97.655 110.144 97.047 110.704 96.375 110.704ZM107.455 120.16C104.751 120.16 102.895 118.736 102.895 115.744H105.311C105.311 117.312 106.143 118.08 107.471 118.08C108.815 118.08 109.631 117.296 109.631 115.568V108.8H112.031V115.76C112.031 118.736 110.159 120.16 107.455 120.16ZM115.963 120.16C114.603 120.16 113.291 119.504 113.291 117.792C113.291 115.952 114.795 115.552 116.235 115.344L117.643 115.136C118.411 115.024 118.651 114.896 118.651 114.432V114.32C118.651 113.44 118.075 113.2 117.355 113.2C116.603 113.2 115.931 113.44 115.931 114.304V114.464H113.739V114.08C113.739 112.448 114.827 111.52 117.419 111.52C119.931 111.52 120.939 112.416 120.939 114.224V120H118.715V118.528H118.619C118.459 118.976 117.787 120.16 115.963 120.16ZM116.763 118.496C117.867 118.496 118.651 117.76 118.651 117.104V116.176C118.523 116.368 118.123 116.432 117.755 116.496L116.587 116.704C115.867 116.816 115.627 117.168 115.627 117.6C115.627 118.112 115.963 118.496 116.763 118.496ZM128.292 115.28C128.292 114.016 127.732 113.456 126.756 113.456C125.78 113.456 125.012 114.016 125.012 115.28V120H122.676V111.68H125.012V113.424H125.108C125.252 112.64 126.052 111.52 127.764 111.52C129.38 111.52 130.628 112.56 130.628 114.72V120H128.292V115.28ZM135.405 120.16C133.181 120.16 131.821 119.184 131.805 117.264H133.901C133.981 118.048 134.509 118.416 135.421 118.416C136.205 118.416 136.733 118.144 136.733 117.552C136.733 117.168 136.477 116.928 135.933 116.816L134.397 116.496C132.653 116.096 132.029 115.168 132.029 114.064C132.029 112.448 133.421 111.52 135.437 111.52C137.661 111.52 138.829 112.608 138.861 114.4H136.909C136.813 113.568 136.269 113.264 135.469 113.264C134.669 113.264 134.301 113.552 134.301 114C134.301 114.416 134.605 114.688 135.165 114.8L136.733 115.136C138.045 115.424 139.133 116.032 139.133 117.504C139.133 119.36 137.421 120.16 135.405 120.16ZM143.436 120.16C141.212 120.16 139.852 119.184 139.836 117.264H141.932C142.012 118.048 142.54 118.416 143.452 118.416C144.236 118.416 144.764 118.144 144.764 117.552C144.764 117.168 144.508 116.928 143.964 116.816L142.428 116.496C140.684 116.096 140.06 115.168 140.06 114.064C140.06 112.448 141.452 111.52 143.468 111.52C145.692 111.52 146.86 112.608 146.892 114.4H144.94C144.844 113.568 144.3 113.264 143.5 113.264C142.7 113.264 142.332 113.552 142.332 114C142.332 114.416 142.636 114.688 143.196 114.8L144.764 115.136C146.076 115.424 147.164 116.032 147.164 117.504C147.164 119.36 145.452 120.16 143.436 120.16ZM152.14 120.16C150.028 120.16 147.948 118.992 147.948 115.824C147.948 112.72 149.916 111.52 152.124 111.52C154.268 111.52 156.076 112.64 156.076 115.792C156.076 116.096 156.06 116.256 156.028 116.432H150.172C150.3 117.824 151.02 118.384 152.172 118.384C153.244 118.384 153.708 117.952 153.9 117.28H155.964C155.548 119.184 154.076 120.16 152.14 120.16ZM150.172 115.056H153.868C153.836 114.096 153.34 113.296 152.06 113.296C150.972 113.296 150.332 113.904 150.172 115.056ZM162.948 115.28C162.948 114.016 162.388 113.456 161.412 113.456C160.436 113.456 159.668 114.016 159.668 115.28V120H157.332V111.68H159.668V113.424H159.764C159.908 112.64 160.708 111.52 162.42 111.52C164.036 111.52 165.284 112.56 165.284 114.72V120H162.948V115.28Z" fill="black"/>
</g>
<defs>
<clipPath id="clip0_1214_85">
<rect width="238" height="228" fill="white"/>
</clipPath>
</defs>
</svg>
