<svg width="1200" height="600" viewBox="0 0 1200 600" fill="none" xmlns="http://www.w3.org/2000/svg">
<rect width="1200" height="600" fill="white"/>
<path d="M412.328 324V279.2H421.928V324H412.328ZM451.042 305.12C451.042 300.064 448.802 297.824 444.898 297.824C440.994 297.824 437.922 300.064 437.922 305.12V324H428.578V290.72H437.922V297.696H438.306C438.882 294.56 442.082 290.08 448.93 290.08C455.394 290.08 460.386 294.24 460.386 302.88V324H451.042V305.12ZM480.008 324.64C473.032 324.64 465.416 319.584 465.416 307.36C465.416 295.136 473.032 290.08 480.008 290.08C484.936 290.08 488.584 292.64 489.8 295.52V279.2H499.144V324H489.8V319.2C488.584 322.08 484.936 324.64 480.008 324.64ZM482.248 316.896C486.344 316.896 490.184 313.888 490.184 307.36C490.184 300.832 486.344 297.824 482.248 297.824C478.088 297.824 474.248 300.832 474.248 307.36C474.248 313.888 478.088 316.896 482.248 316.896ZM505.828 324V290.72H515.172V324H505.828ZM510.5 286.816C507.812 286.816 505.38 284.576 505.38 281.696C505.38 278.752 507.812 276.512 510.5 276.512C513.188 276.512 515.62 278.752 515.62 281.696C515.62 284.576 513.188 286.816 510.5 286.816ZM554.818 324.64C544.002 324.64 536.578 318.944 536.578 306.976H546.242C546.242 313.248 549.57 316.32 554.882 316.32C560.258 316.32 563.522 313.184 563.522 306.272V279.2H573.122V307.04C573.122 318.944 565.634 324.64 554.818 324.64ZM588.854 324.64C583.414 324.64 578.166 322.016 578.166 315.168C578.166 307.808 584.182 306.208 589.942 305.376L595.574 304.544C598.646 304.096 599.606 303.584 599.606 301.728V301.28C599.606 297.76 597.302 296.8 594.422 296.8C591.414 296.8 588.726 297.76 588.726 301.216V301.856H579.958V300.32C579.958 293.792 584.31 290.08 594.678 290.08C604.726 290.08 608.757 293.664 608.757 300.896V324H599.862V318.112H599.478C598.838 319.904 596.15 324.64 588.854 324.64ZM592.054 317.984C596.47 317.984 599.606 315.04 599.606 312.416V308.704C599.094 309.472 597.494 309.728 596.022 309.984L591.35 310.816C588.47 311.264 587.51 312.672 587.51 314.4C587.51 316.448 588.854 317.984 592.054 317.984ZM638.167 305.12C638.167 300.064 635.927 297.824 632.023 297.824C628.119 297.824 625.047 300.064 625.047 305.12V324H615.703V290.72H625.047V297.696H625.431C626.007 294.56 629.207 290.08 636.055 290.08C642.519 290.08 647.511 294.24 647.511 302.88V324H638.167V305.12ZM666.621 324.64C657.725 324.64 652.285 320.736 652.221 313.056H660.605C660.925 316.192 663.037 317.664 666.685 317.664C669.821 317.664 671.933 316.576 671.933 314.208C671.933 312.672 670.909 311.712 668.733 311.264L662.589 309.984C655.613 308.384 653.117 304.672 653.117 300.256C653.117 293.792 658.685 290.08 666.749 290.08C675.645 290.08 680.317 294.432 680.445 301.6H672.637C672.253 298.272 670.077 297.056 666.877 297.056C663.677 297.056 662.205 298.208 662.205 300C662.205 301.664 663.421 302.752 665.661 303.2L671.933 304.544C677.181 305.696 681.533 308.128 681.533 314.016C681.533 321.44 674.685 324.64 666.621 324.64ZM698.746 324.64C689.85 324.64 684.41 320.736 684.346 313.056H692.73C693.05 316.192 695.162 317.664 698.81 317.664C701.946 317.664 704.058 316.576 704.058 314.208C704.058 312.672 703.034 311.712 700.858 311.264L694.714 309.984C687.738 308.384 685.242 304.672 685.242 300.256C685.242 293.792 690.81 290.08 698.874 290.08C707.77 290.08 712.442 294.432 712.57 301.6H704.762C704.378 298.272 702.202 297.056 699.002 297.056C695.802 297.056 694.33 298.208 694.33 300C694.33 301.664 695.546 302.752 697.786 303.2L704.058 304.544C709.306 305.696 713.658 308.128 713.658 314.016C713.658 321.44 706.81 324.64 698.746 324.64ZM733.559 324.64C725.111 324.64 716.791 319.968 716.791 307.296C716.791 294.88 724.663 290.08 733.495 290.08C742.071 290.08 749.303 294.56 749.303 307.168C749.303 308.384 749.239 309.024 749.111 309.728H725.687C726.199 315.296 729.079 317.536 733.687 317.536C737.975 317.536 739.831 315.808 740.599 313.12H748.854C747.191 320.736 741.303 324.64 733.559 324.64ZM725.687 304.224H740.471C740.343 300.384 738.359 297.184 733.239 297.184C728.887 297.184 726.327 299.616 725.687 304.224ZM776.792 305.12C776.792 300.064 774.552 297.824 770.648 297.824C766.744 297.824 763.672 300.064 763.672 305.12V324H754.328V290.72H763.672V297.696H764.056C764.632 294.56 767.832 290.08 774.68 290.08C781.144 290.08 786.136 294.24 786.136 302.88V324H776.792V305.12Z" fill="black"/>
</svg>
