<svg width="651" height="569" viewBox="0 0 651 569" fill="none" xmlns="http://www.w3.org/2000/svg">
<g clip-path="url(#clip0_942_89)">
<g opacity="0.2">
<path d="M172.561 434.55C186.652 561.037 200.743 687.513 214.834 814H286.295C281.957 794.977 278.092 765.607 286.295 732.473C294.629 698.846 312.424 673.321 351.717 632.83C424.467 557.866 443.288 563.1 494.64 507.018C550.823 445.662 574.375 389.076 579.186 377.18C599.819 326.12 572.472 170.848 555.03 131.594C544.894 239.108 531.136 293.459 513.763 294.647C504.413 295.281 494.016 280.526 482.562 250.361C468.592 300.052 445.291 375.217 412.107 451.66C403.481 471.529 388.515 504.562 354.737 530.167C341.914 539.89 322.619 554.122 295.353 555.33C257.71 557 230.626 532.683 218.86 522.115C183.683 490.531 175.007 449.859 172.561 434.55Z" fill="url(#paint0_linear_942_89)"/>
<path d="M588.244 125.743L558.049 -261.759L483.569 -266.791C485.471 -232.852 482.904 -182.527 454.38 -135.947C423.38 -85.3198 389.884 -85.1386 311.458 -14.1604C284.332 10.3881 243.861 47.5177 205.775 106.619C165.707 168.801 150.418 220.947 146.392 235.451C136.478 271.151 132.744 302.252 131.294 325.029L106.837 304.225C108.699 309.328 121.119 348.078 139.981 372.123C159.809 397.407 178.288 413.722 181.619 415.604C180.14 351.973 193.254 302.514 204.769 270.668C222.966 220.313 246.408 188.387 284.282 136.804C337.647 64.115 374.927 36.3557 384.932 29.109C418.79 4.59068 447.375 -15.4688 484.575 -11.1509C525.469 -6.40026 551.215 24.8515 558.049 33.135C566.524 43.4113 587.429 117.339 588.244 125.733V125.743Z" fill="url(#paint1_linear_942_89)" fill-opacity="0.87"/>
<path d="M464.132 -310.989C459.864 -274.06 448.406 -218.176 413.611 -161.607C371.798 -93.6383 313.518 -54.7809 266.809 -21.036C174.59 45.575 143.207 47.8232 90.7471 101.082C78.2853 113.727 63.7124 130.89 56.9908 139.05C45.1909 153.36 32.946 174.62 24.5355 193.461C22.1961 198.711 21.0777 201.575 21.0777 201.575C16.376 213.683 12.3248 225.928 10.6929 232.079C3.81156 257.984 0 280.317 0 284.014C1.04989 279.769 0.0569646 282.554 2.61322 270.377C5.61454 256.033 10.2364 240.581 11.777 234.361C20.6668 198.437 38.2868 168.835 45.7501 156.898C50.0296 150.062 52.3918 147.426 54.9594 143.865C58.9536 138.525 66.2001 129.19 76.1855 118.463C107.648 84.6492 138.426 66.8923 232.482 14.8885C257.086 1.28555 276.692 -9.49865 287.351 -15.3643C306.568 -26.4339 321.426 -36.4078 330.853 -42.9924C373.442 -72.7546 418.678 -106.351 444.891 -161.071C451.065 -173.944 453.439 -184.306 456.075 -193.926C469.244 -241.947 467.544 -283.748 464.132 -311V-310.989Z" fill="url(#paint2_linear_942_89)"/>
<path d="M198.641 138.251C183.121 142.04 123.87 158.439 88.7332 215.224C73.8636 239.258 67.1991 262.709 64.8483 278.994C64.0038 281.721 62.1323 297.389 71.7182 313.594C72.4828 314.884 81.4068 331.579 104.037 331.796C120.88 331.967 132.954 323.374 144.583 308.653C142.232 312.738 132.235 329.069 113.075 333.36C104.801 335.208 98.2621 334.044 96.6074 333.713C77.0361 329.879 65.1107 308.87 63.5244 305.754C61.961 313.971 62.7713 330.153 65.8297 345.89C67.085 352.36 72.7452 379.566 94.4734 398.156C120.447 420.387 160.868 425.065 187.914 422.498C222.092 419.245 243.056 399.001 263.095 386.699C258.371 394.516 241.31 418.367 205.1 428.58C173.934 437.367 146.751 432.049 131.357 426.07C117.697 420.775 82.7991 404.764 60.1123 365.564C52.512 352.429 36.3871 319.597 42.5723 277.852C47.5022 244.564 64.1179 222.573 73.7153 210.191C115.163 156.704 176.399 142.314 198.652 138.228L198.641 138.251Z" fill="url(#paint3_linear_942_89)"/>
<path fill-rule="evenodd" clip-rule="evenodd" d="M295.681 813.925C295.682 813.95 295.682 813.975 295.683 814.001L295.701 813.973C295.695 813.957 295.688 813.941 295.681 813.925Z" fill="url(#paint4_linear_942_89)"/>
<path d="M308.542 738.012C320.735 706.977 338.157 687.564 357.414 666.515C363.191 660.202 387.933 633.574 435.682 600.261C487.711 563.963 498.362 564.763 540.407 533.626C560.932 518.424 577.706 503.121 596.99 476.725C602.43 469.278 623.895 439.08 638.141 393.624C647.55 363.612 649.75 339.876 650.27 333.73C650.818 327.185 651.986 313.09 650.809 295.146C649.075 268.778 643.982 257.621 640.441 251.392C639.611 249.932 636.982 245.432 632.656 240.253C629.133 236.032 620.792 228.947 604.72 218.804C585.172 206.475 566.727 203.854 555.119 202.329C550.035 201.659 527.183 198.944 498.535 206.448C473.228 213.067 454.564 224.736 443.047 233.401L403.73 263.72C434.66 250.89 461.153 243.842 480.164 239.76C503.144 234.833 515.839 232.211 533.808 233.773C567.558 236.692 590.383 251.773 596.279 255.854C606.053 262.632 618.976 271.604 628.248 289.167C638.105 307.855 638.178 361.139 634.865 379.381C634.865 379.381 633.633 386.168 631.926 392.853C622.407 430.126 604.355 455.136 591.505 472.588C582.26 485.139 564.008 509.527 533.453 532.11C509.478 549.822 498.389 551.31 461.19 569.328C406.468 595.844 357.952 618.837 324.367 664.999C305.695 690.669 296.824 713.644 293.502 724.14C289.66 736.283 285.379 750.192 285.781 769.056C286.209 788.799 291.549 804.4 295.681 813.925C295.14 796.294 296.549 768.557 308.542 738.012Z" fill="url(#paint5_linear_942_89)"/>
</g>
</g>
<defs>
<linearGradient id="paint0_linear_942_89" x1="586.957" y1="140.801" x2="209.168" y2="813.999" gradientUnits="userSpaceOnUse">
<stop offset="0.175988"/>
<stop offset="0.345082" stop-color="#DBD5C6"/>
<stop offset="0.577904" stop-color="#DBD5C6" stop-opacity="0.633111"/>
<stop offset="0.811692" stop-color="#DBD5C6" stop-opacity="0.2"/>
<stop offset="1" stop-color="#DBD5C6" stop-opacity="0"/>
</linearGradient>
<linearGradient id="paint1_linear_942_89" x1="553.49" y1="-267.05" x2="213.5" y2="348.5" gradientUnits="userSpaceOnUse">
<stop stop-color="#DBD5C6"/>
<stop offset="0.414806" stop-color="#DBD5C6"/>
<stop offset="0.729472" stop-color="#DBD5C6" stop-opacity="0.67043"/>
<stop offset="0.862227" stop-color="#DBD5C6" stop-opacity="0.25"/>
<stop offset="1"/>
</linearGradient>
<linearGradient id="paint2_linear_942_89" x1="233" y1="56" x2="46" y2="270" gradientUnits="userSpaceOnUse">
<stop stop-color="#DBD5C6"/>
<stop offset="0.700039"/>
</linearGradient>
<linearGradient id="paint3_linear_942_89" x1="152" y1="149" x2="152.142" y2="433.225" gradientUnits="userSpaceOnUse">
<stop stop-color="#7C7671"/>
<stop offset="0.856745"/>
</linearGradient>
<linearGradient id="paint4_linear_942_89" x1="468.535" y1="201.3" x2="469" y2="574" gradientUnits="userSpaceOnUse">
<stop stop-color="#FBFBFB"/>
<stop offset="1"/>
</linearGradient>
<linearGradient id="paint5_linear_942_89" x1="468.535" y1="201.3" x2="469" y2="574" gradientUnits="userSpaceOnUse">
<stop stop-color="#FBFBFB"/>
<stop offset="1"/>
</linearGradient>
<clipPath id="clip0_942_89">
<rect width="651" height="569" fill="white"/>
</clipPath>
</defs>
</svg>
