<svg width="1200" height="600" viewBox="0 0 1200 600" fill="none" xmlns="http://www.w3.org/2000/svg">
<g clip-path="url(#clip0_948_95)">
<rect width="1200" height="600" fill="#161616"/>
<path d="M405.472 318V284.4H408.4L423.76 310.608H422.224L437.44 284.4H440.368V318H436.96V289.728H437.776L423.76 313.728H422.08L407.968 289.728H408.88V318H405.472ZM466.388 318V312.432L466.244 311.52V302.208C466.244 300.064 465.636 298.416 464.42 297.264C463.236 296.112 461.46 295.536 459.092 295.536C457.46 295.536 455.908 295.808 454.436 296.352C452.964 296.896 451.716 297.616 450.692 298.512L449.156 295.968C450.436 294.88 451.972 294.048 453.764 293.472C455.556 292.864 457.444 292.56 459.428 292.56C462.692 292.56 465.204 293.376 466.964 295.008C468.756 296.608 469.652 299.056 469.652 302.352V318H466.388ZM457.7 318.24C455.812 318.24 454.164 317.936 452.756 317.328C451.38 316.688 450.324 315.824 449.588 314.736C448.852 313.616 448.484 312.336 448.484 310.896C448.484 309.584 448.788 308.4 449.396 307.344C450.036 306.256 451.06 305.392 452.468 304.752C453.908 304.08 455.828 303.744 458.228 303.744H466.916V306.288H458.324C455.892 306.288 454.196 306.72 453.236 307.584C452.308 308.448 451.844 309.52 451.844 310.8C451.844 312.24 452.404 313.392 453.524 314.256C454.644 315.12 456.212 315.552 458.228 315.552C460.148 315.552 461.796 315.12 463.172 314.256C464.58 313.36 465.604 312.08 466.244 310.416L467.012 312.768C466.372 314.432 465.252 315.76 463.652 316.752C462.084 317.744 460.1 318.24 457.7 318.24ZM478.908 318V292.8H482.172V299.664L481.836 298.464C482.54 296.544 483.724 295.088 485.388 294.096C487.052 293.072 489.116 292.56 491.58 292.56V295.872C491.452 295.872 491.324 295.872 491.196 295.872C491.068 295.84 490.94 295.824 490.812 295.824C488.156 295.824 486.076 296.64 484.572 298.272C483.068 299.872 482.316 302.16 482.316 305.136V318H478.908ZM500.487 311.472L500.583 307.104L516.279 292.8H520.455L509.367 303.408L507.447 305.04L500.487 311.472ZM497.799 318V282.384H501.207V318H497.799ZM517.335 318L506.823 304.896L509.031 302.256L521.511 318H517.335ZM536.347 318.24C533.723 318.24 531.419 317.696 529.435 316.608C527.451 315.488 525.899 313.968 524.779 312.048C523.659 310.096 523.099 307.872 523.099 305.376C523.099 302.88 523.627 300.672 524.683 298.752C525.771 296.832 527.243 295.328 529.099 294.24C530.987 293.12 533.099 292.56 535.435 292.56C537.803 292.56 539.899 293.104 541.723 294.192C543.579 295.248 545.035 296.752 546.091 298.704C547.147 300.624 547.675 302.848 547.675 305.376C547.675 305.536 547.659 305.712 547.627 305.904C547.627 306.064 547.627 306.24 547.627 306.432H525.691V303.888H545.803L544.459 304.896C544.459 303.072 544.059 301.456 543.259 300.048C542.491 298.608 541.435 297.488 540.091 296.688C538.747 295.888 537.195 295.488 535.435 295.488C533.707 295.488 532.155 295.888 530.779 296.688C529.403 297.488 528.331 298.608 527.563 300.048C526.795 301.488 526.411 303.136 526.411 304.992V305.52C526.411 307.44 526.827 309.136 527.659 310.608C528.523 312.048 529.707 313.184 531.211 314.016C532.747 314.816 534.491 315.216 536.443 315.216C537.979 315.216 539.403 314.944 540.715 314.4C542.059 313.856 543.211 313.024 544.171 311.904L546.091 314.112C544.971 315.456 543.563 316.48 541.867 317.184C540.203 317.888 538.363 318.24 536.347 318.24ZM562.579 318.24C560.211 318.24 558.387 317.6 557.107 316.32C555.827 315.04 555.187 313.232 555.187 310.896V287.232H558.595V310.704C558.595 312.176 558.963 313.312 559.699 314.112C560.467 314.912 561.555 315.312 562.963 315.312C564.467 315.312 565.715 314.88 566.707 314.016L567.907 316.464C567.235 317.072 566.419 317.52 565.459 317.808C564.531 318.096 563.571 318.24 562.579 318.24ZM550.675 295.632V292.8H566.275V295.632H550.675ZM574.111 318V292.8H577.519V318H574.111ZM575.839 287.232C575.135 287.232 574.543 286.992 574.063 286.512C573.583 286.032 573.343 285.456 573.343 284.784C573.343 284.112 573.583 283.552 574.063 283.104C574.543 282.624 575.135 282.384 575.839 282.384C576.543 282.384 577.135 282.608 577.615 283.056C578.095 283.504 578.335 284.064 578.335 284.736C578.335 285.44 578.095 286.032 577.615 286.512C577.167 286.992 576.575 287.232 575.839 287.232ZM599.866 292.56C601.914 292.56 603.706 292.96 605.242 293.76C606.81 294.528 608.026 295.712 608.89 297.312C609.786 298.912 610.234 300.928 610.234 303.36V318H606.826V303.696C606.826 301.04 606.154 299.04 604.81 297.696C603.498 296.32 601.642 295.632 599.242 295.632C597.45 295.632 595.882 296 594.538 296.736C593.226 297.44 592.202 298.48 591.466 299.856C590.762 301.2 590.41 302.832 590.41 304.752V318H587.002V292.8H590.266V299.712L589.738 298.416C590.538 296.592 591.818 295.168 593.578 294.144C595.338 293.088 597.434 292.56 599.866 292.56ZM630.192 327.552C627.888 327.552 625.68 327.216 623.568 326.544C621.456 325.872 619.744 324.912 618.432 323.664L620.16 321.072C621.344 322.128 622.8 322.96 624.528 323.568C626.288 324.208 628.144 324.528 630.096 324.528C633.296 324.528 635.648 323.776 637.152 322.272C638.656 320.8 639.408 318.496 639.408 315.36V309.072L639.888 304.752L639.552 300.432V292.8H642.816V314.928C642.816 319.28 641.744 322.464 639.6 324.48C637.488 326.528 634.352 327.552 630.192 327.552ZM629.568 317.04C627.168 317.04 625.008 316.528 623.088 315.504C621.168 314.448 619.648 312.992 618.528 311.136C617.44 309.28 616.896 307.152 616.896 304.752C616.896 302.352 617.44 300.24 618.528 298.416C619.648 296.56 621.168 295.12 623.088 294.096C625.008 293.072 627.168 292.56 629.568 292.56C631.808 292.56 633.824 293.024 635.616 293.952C637.408 294.88 638.832 296.256 639.888 298.08C640.944 299.904 641.472 302.128 641.472 304.752C641.472 307.376 640.944 309.6 639.888 311.424C638.832 313.248 637.408 314.64 635.616 315.6C633.824 316.56 631.808 317.04 629.568 317.04ZM629.904 314.016C631.76 314.016 633.408 313.632 634.848 312.864C636.288 312.064 637.424 310.976 638.256 309.6C639.088 308.192 639.504 306.576 639.504 304.752C639.504 302.928 639.088 301.328 638.256 299.952C637.424 298.576 636.288 297.504 634.848 296.736C633.408 295.936 631.76 295.536 629.904 295.536C628.08 295.536 626.432 295.936 624.96 296.736C623.52 297.504 622.384 298.576 621.552 299.952C620.752 301.328 620.352 302.928 620.352 304.752C620.352 306.576 620.752 308.192 621.552 309.6C622.384 310.976 623.52 312.064 624.96 312.864C626.432 313.632 628.08 314.016 629.904 314.016ZM665.581 318V284.4H669.133V314.928H687.949V318H665.581ZM703.024 318.24C700.592 318.24 698.4 317.696 696.448 316.608C694.528 315.488 693.008 313.968 691.888 312.048C690.768 310.096 690.208 307.872 690.208 305.376C690.208 302.848 690.768 300.624 691.888 298.704C693.008 296.784 694.528 295.28 696.448 294.192C698.368 293.104 700.56 292.56 703.024 292.56C705.52 292.56 707.728 293.104 709.648 294.192C711.6 295.28 713.12 296.784 714.208 298.704C715.328 300.624 715.888 302.848 715.888 305.376C715.888 307.872 715.328 310.096 714.208 312.048C713.12 313.968 711.6 315.488 709.648 316.608C707.696 317.696 705.488 318.24 703.024 318.24ZM703.024 315.216C704.848 315.216 706.464 314.816 707.872 314.016C709.28 313.184 710.384 312.032 711.184 310.56C712.016 309.056 712.432 307.328 712.432 305.376C712.432 303.392 712.016 301.664 711.184 300.192C710.384 298.72 709.28 297.584 707.872 296.784C706.464 295.952 704.864 295.536 703.072 295.536C701.28 295.536 699.68 295.952 698.272 296.784C696.864 297.584 695.744 298.72 694.912 300.192C694.08 301.664 693.664 303.392 693.664 305.376C693.664 307.328 694.08 309.056 694.912 310.56C695.744 312.032 696.864 313.184 698.272 314.016C699.68 314.816 701.264 315.216 703.024 315.216ZM733.118 318.24C730.686 318.24 728.494 317.696 726.542 316.608C724.622 315.488 723.102 313.968 721.982 312.048C720.862 310.096 720.302 307.872 720.302 305.376C720.302 302.848 720.862 300.624 721.982 298.704C723.102 296.784 724.622 295.28 726.542 294.192C728.462 293.104 730.654 292.56 733.118 292.56C735.614 292.56 737.822 293.104 739.742 294.192C741.694 295.28 743.214 296.784 744.302 298.704C745.422 300.624 745.982 302.848 745.982 305.376C745.982 307.872 745.422 310.096 744.302 312.048C743.214 313.968 741.694 315.488 739.742 316.608C737.79 317.696 735.582 318.24 733.118 318.24ZM733.118 315.216C734.942 315.216 736.558 314.816 737.966 314.016C739.374 313.184 740.478 312.032 741.278 310.56C742.11 309.056 742.526 307.328 742.526 305.376C742.526 303.392 742.11 301.664 741.278 300.192C740.478 298.72 739.374 297.584 737.966 296.784C736.558 295.952 734.958 295.536 733.166 295.536C731.374 295.536 729.774 295.952 728.366 296.784C726.958 297.584 725.838 298.72 725.006 300.192C724.174 301.664 723.758 303.392 723.758 305.376C723.758 307.328 724.174 309.056 725.006 310.56C725.838 312.032 726.958 313.184 728.366 314.016C729.774 314.816 731.358 315.216 733.118 315.216ZM784.428 292.56C786.476 292.56 788.252 292.96 789.756 293.76C791.292 294.528 792.476 295.712 793.308 297.312C794.172 298.912 794.604 300.928 794.604 303.36V318H791.196V303.696C791.196 301.04 790.556 299.04 789.276 297.696C788.028 296.32 786.252 295.632 783.948 295.632C782.22 295.632 780.716 296 779.436 296.736C778.188 297.44 777.212 298.48 776.508 299.856C775.836 301.2 775.5 302.832 775.5 304.752V318H772.092V303.696C772.092 301.04 771.452 299.04 770.172 297.696C768.892 296.32 767.1 295.632 764.796 295.632C763.1 295.632 761.612 296 760.332 296.736C759.052 297.44 758.06 298.48 757.356 299.856C756.684 301.2 756.348 302.832 756.348 304.752V318H752.94V292.8H756.204V299.616L755.676 298.416C756.444 296.592 757.676 295.168 759.372 294.144C761.1 293.088 763.132 292.56 765.468 292.56C767.932 292.56 770.028 293.184 771.756 294.432C773.484 295.648 774.604 297.488 775.116 299.952L773.772 299.424C774.508 297.376 775.804 295.728 777.66 294.48C779.548 293.2 781.804 292.56 784.428 292.56Z" fill="#F0F0F0"/>
<path fill-rule="evenodd" clip-rule="evenodd" d="M135.807 235.232C82.3277 291.111 -5.67215 349.582 -128.404 414.428L-129.338 412.66C-6.64869 347.836 81.1141 289.486 134.362 233.849C187.587 178.235 206.198 125.483 190.969 71.7277C175.705 17.8482 126.38 -37.322 42.9528 -97.5227C-40.4402 -157.699 -157.738 -222.784 -308.667 -296.55L-307.789 -298.347C-156.832 -224.567 -39.4113 -159.423 44.1231 -99.1445C127.623 -38.891 177.435 16.6177 192.893 71.1826C208.387 125.872 189.308 179.329 135.807 235.232ZM117.815 233.104C69.0859 285.82 -11.3762 340.705 -123.723 401.353L-124.673 399.593C-12.3713 338.969 67.8495 284.211 116.346 231.747C164.817 179.312 181.489 129.3 167.026 78.0376C152.53 26.6572 106.696 -26.2387 29.4521 -84.2101C-47.7617 -142.159 -156.204 -205.065 -295.658 -276.517L-294.746 -278.296C-155.264 -206.831 -46.7002 -143.863 30.6526 -85.8097C107.975 -27.7796 154.268 25.4524 168.951 77.4945C183.667 129.655 166.571 180.36 117.815 233.104ZM-124.649 390.148C-23.3163 334.501 49.1942 284.001 92.9855 235.304C136.806 186.575 151.963 139.534 138.296 90.9393C124.66 42.4575 82.3891 -7.33067 11.9975 -61.7747C-58.4217 -116.24 -157.132 -175.475 -283.888 -242.807L-284.827 -241.041C-158.098 -173.724 -59.5084 -114.552 10.7739 -60.1927C81.0839 -5.8117 122.916 43.6428 136.37 91.4809C149.793 139.206 135.028 185.562 91.4983 233.967C47.9399 282.404 -24.3263 332.774 -125.612 388.395L-124.649 390.148ZM67.8643 233.986C28.3243 279.482 -37.3816 326.441 -129.31 378.008L-130.288 376.263C-38.4104 324.725 27.0477 277.902 66.3547 232.674C105.63 187.483 118.718 143.988 106.103 98.9697C93.459 53.845 54.9387 6.97112 -9.58116 -44.7693C-74.0763 -96.4899 -164.414 -152.967 -280.468 -217.337L-279.498 -219.086C-163.415 -154.7 -72.9593 -98.1578 -8.32994 -46.3296C56.2747 5.47882 95.2104 52.6829 108.029 98.43C120.878 144.284 107.436 188.454 67.8643 233.986ZM-132.819 373.143C-50.7148 326.062 7.90098 283.038 43.0406 241.154C78.2136 199.231 89.9291 158.363 78.027 115.732C66.1529 73.202 30.8201 29.1153 -27.586 -19.4415C-86.0141 -68.0166 -167.66 -121.167 -272.368 -181.793L-273.371 -180.062C-168.691 -119.453 -87.1613 -66.3694 -28.8645 -17.9036C29.4542 30.5807 64.3945 74.3412 76.1007 116.27C87.7789 158.099 76.3819 198.302 41.5084 239.869C6.60154 281.475 -51.7631 324.358 -133.814 371.408L-132.819 373.143ZM9.00147 249.741C-26.1381 291.624 -84.7539 334.649 -166.858 381.73L-167.853 379.995C-85.8022 332.944 -27.4375 290.061 7.46931 248.455C42.3428 206.889 53.7398 166.686 42.0616 124.857C30.3554 82.9278 -4.58486 39.1673 -62.9036 -9.31694C-121.2 -57.7828 -202.731 -110.867 -307.41 -171.476L-306.408 -173.206C-201.7 -112.581 -120.053 -59.43 -61.6251 -10.8549C-3.21903 37.7019 32.1138 81.7887 43.9879 124.319C55.89 166.95 44.1745 207.818 9.00147 249.741ZM-199.058 389.853C-116.953 342.772 -58.3373 299.747 -23.1977 257.864C11.9753 215.94 23.6908 175.072 11.7887 132.442C-0.0853531 89.9115 -35.4182 45.8247 -93.8243 -2.73206C-152.252 -51.3072 -233.899 -104.458 -338.607 -165.084L-339.609 -163.353C-234.93 -102.744 -153.4 -49.66 -95.1028 -1.19413C-36.784 47.2901 -1.8438 91.0506 9.8624 132.98C21.5406 174.808 10.1436 215.012 -24.7299 256.578C-59.6367 298.184 -118.001 341.067 -200.052 388.118L-199.058 389.853ZM-54.4768 265.754C-89.6164 307.638 -148.232 350.662 -230.337 397.743L-231.331 396.008C-149.28 348.958 -90.9158 306.075 -56.009 264.469C-21.1355 222.903 -9.73846 182.699 -21.4167 140.87C-33.1229 98.9413 -68.0631 55.1807 -126.382 6.69649C-184.679 -41.7694 -266.209 -94.8533 -370.888 -155.462L-369.886 -157.193C-265.178 -96.5674 -183.531 -43.4166 -125.103 5.15856C-66.6973 53.7153 -31.3644 97.8021 -19.4903 140.332C-7.58824 182.963 -19.3038 223.831 -54.4768 265.754ZM-253.336 403.545C-171.231 356.464 -112.616 313.44 -77.476 271.556C-42.3031 229.633 -30.5875 188.765 -42.4896 146.134C-54.3637 103.604 -89.6965 59.5171 -148.103 10.9604C-206.531 -37.6148 -288.177 -90.7656 -392.885 -151.391L-393.887 -149.66C-289.208 -89.0515 -207.678 -35.9676 -149.381 12.4983C-91.0624 60.9825 -56.1221 104.743 -44.4159 146.672C-32.7377 188.501 -44.1347 228.704 -79.0082 270.271C-113.915 311.877 -172.28 354.76 -254.331 401.81L-253.336 403.545Z" fill="#E94560"/>
<path fill-rule="evenodd" clip-rule="evenodd" d="M1023.33 286.412C1076.81 230.533 1164.81 172.062 1287.54 107.216L1288.48 108.984C1165.79 173.807 1078.02 232.158 1024.78 287.795C971.551 343.408 952.939 396.161 968.169 449.916C983.433 503.796 1032.76 558.966 1116.18 619.167C1199.58 679.343 1316.88 744.428 1467.81 818.194L1466.93 819.991C1315.97 746.211 1198.55 681.067 1115.01 620.788C1031.51 560.535 981.703 505.026 966.244 450.461C950.75 395.772 969.829 342.315 1023.33 286.412ZM1041.32 288.539C1090.05 235.824 1170.51 180.939 1282.86 120.291L1283.81 122.05C1171.51 182.675 1091.29 237.433 1042.79 289.897C994.321 342.332 977.648 392.344 992.111 443.606C1006.61 494.987 1052.44 547.883 1129.69 605.854C1206.9 663.803 1315.34 726.709 1454.8 798.16L1453.88 799.94C1314.4 728.475 1205.84 665.506 1128.49 607.454C1051.16 549.423 1004.87 496.192 990.186 444.149C975.47 391.989 992.567 341.284 1041.32 288.539ZM1283.79 131.496C1182.45 187.143 1109.94 237.643 1066.15 286.34C1022.33 335.069 1007.17 382.11 1020.84 430.705C1034.48 479.186 1076.75 528.975 1147.14 583.419C1217.56 637.884 1316.27 697.119 1443.03 764.451L1443.96 762.685C1317.24 695.368 1218.65 636.196 1148.36 581.837C1078.05 527.456 1036.22 478.001 1022.77 430.163C1009.34 382.438 1024.11 336.082 1067.64 287.677C1111.2 239.24 1183.46 188.87 1284.75 133.249L1283.79 131.496ZM1091.27 287.658C1130.81 242.162 1196.52 195.203 1288.45 143.636L1289.43 145.381C1197.55 196.919 1132.09 243.742 1092.78 288.97C1053.51 334.161 1040.42 377.656 1053.03 422.674C1065.68 467.799 1104.2 514.673 1168.72 566.413C1233.21 618.134 1323.55 674.611 1439.61 738.981L1438.64 740.73C1322.55 676.344 1232.1 619.802 1167.47 567.973C1102.86 516.165 1063.93 468.961 1051.11 423.214C1038.26 377.36 1051.7 333.19 1091.27 287.658ZM1291.96 148.501C1209.85 195.582 1151.24 238.606 1116.1 280.49C1080.92 322.413 1069.21 363.281 1081.11 405.912C1092.98 448.442 1128.32 492.529 1186.72 541.085C1245.15 589.661 1326.8 642.811 1431.51 703.437L1432.51 701.706C1327.83 641.097 1246.3 588.013 1188 539.547C1129.68 491.063 1094.74 447.303 1083.04 405.374C1071.36 363.545 1082.76 323.341 1117.63 281.775C1152.54 240.169 1210.9 197.286 1292.95 150.236L1291.96 148.501ZM1150.14 271.903C1185.28 230.02 1243.89 186.995 1326 139.914L1326.99 141.649C1244.94 188.7 1186.58 231.582 1151.67 273.189C1116.79 314.755 1105.4 354.958 1117.08 396.787C1128.78 438.716 1163.72 482.477 1222.04 530.961C1280.34 579.427 1361.87 632.511 1466.55 693.119L1465.55 694.85C1360.84 634.225 1279.19 581.074 1220.76 532.499C1162.36 483.942 1127.02 439.855 1115.15 397.325C1103.25 354.694 1114.96 313.826 1150.14 271.903ZM1358.2 131.791C1276.09 178.872 1217.47 221.897 1182.34 263.78C1147.16 305.704 1135.45 346.571 1147.35 389.202C1159.22 431.732 1194.56 475.819 1252.96 524.376C1311.39 572.951 1393.04 626.102 1497.74 686.727L1498.75 684.997C1394.07 624.388 1312.54 571.304 1254.24 522.838C1195.92 474.354 1160.98 430.593 1149.28 388.664C1137.6 346.836 1148.99 306.632 1183.87 265.066C1218.77 223.46 1277.14 180.577 1359.19 133.526L1358.2 131.791ZM1213.61 255.89C1248.75 214.006 1307.37 170.982 1389.47 123.901L1390.47 125.636C1308.42 172.686 1250.05 215.569 1215.15 257.175C1180.27 298.741 1168.88 338.945 1180.55 380.774C1192.26 422.703 1227.2 466.463 1285.52 514.947C1343.82 563.413 1425.35 616.497 1530.03 677.106L1529.02 678.837C1424.32 618.211 1342.67 565.06 1284.24 516.485C1225.83 467.929 1190.5 423.842 1178.63 381.311C1166.73 338.681 1178.44 297.813 1213.61 255.89ZM1412.47 118.099C1330.37 165.18 1271.75 208.204 1236.61 250.088C1201.44 292.011 1189.73 332.879 1201.63 375.51C1213.5 418.04 1248.83 462.127 1307.24 510.684C1365.67 559.259 1447.31 612.41 1552.02 673.035L1553.02 671.304C1448.35 610.695 1366.82 557.612 1308.52 509.146C1250.2 460.661 1215.26 416.901 1203.55 374.972C1191.88 333.143 1203.27 292.94 1238.15 251.373C1273.05 209.767 1331.42 166.884 1413.47 119.834L1412.47 118.099Z" fill="#E94560"/>
</g>
<defs>
<clipPath id="clip0_948_95">
<rect width="1200" height="600" fill="white"/>
</clipPath>
</defs>
</svg>
