<svg width="238" height="228" viewBox="0 0 238 228" fill="none" xmlns="http://www.w3.org/2000/svg">
<g clip-path="url(#clip0_1106_145)">
<rect width="238" height="228" fill="#161616"/>
<g clip-path="url(#clip1_1106_145)">
<path d="M-173.05 -0.0304361C-109.132 31.2089 -59.3845 58.8062 -23.9783 84.3551C11.3938 109.88 32.6226 133.478 39.2232 156.777C45.8591 180.2 37.6469 203.035 14.9166 226.785C-7.79114 250.512 -45.1159 275.302 -97.0882 302.762L-97.555 301.877L-98.0228 300.993C-46.0927 273.556 -9.0045 248.887 13.472 225.402C35.9255 201.941 43.6701 179.81 37.299 157.321C30.8925 134.708 10.1504 111.449 -25.1482 85.9777C-60.4131 60.5307 -110.037 32.9924 -173.928 1.7663L-173.05 -0.0304361ZM-167.518 8.46242C-108.458 38.7225 -62.4615 65.4 -29.673 90.0076C3.08513 114.592 22.8166 137.226 29.0867 159.449C35.3899 181.791 28.0298 203.458 7.30606 225.877C-13.3911 248.267 -47.5256 271.54 -95.1022 297.224L-96.0519 295.463C-48.5205 269.804 -14.6273 246.658 5.83754 224.519C26.2754 202.409 33.212 181.436 27.162 159.992C21.0786 138.431 1.80683 116.133 -30.873 91.6066C-63.5226 67.1032 -109.399 40.4885 -168.431 10.2426L-167.974 9.35301L-167.518 8.46242ZM-162.915 23.4922C-109.243 52.0024 -67.4168 77.0983 -37.5643 100.187C-7.73959 123.255 10.283 144.431 16.1082 165.142C21.9649 185.965 15.435 206.079 -3.20084 226.802C-21.8076 247.493 -52.5766 268.912 -95.4908 292.478L-95.9727 291.601L-96.4537 290.724C-53.5869 267.184 -23.0623 245.897 -4.68827 225.465C13.6565 205.066 19.7953 185.637 14.183 165.683C8.53885 145.616 -9.04555 124.775 -38.7885 101.77C-68.5041 78.7871 -110.209 53.753 -163.853 25.2578L-162.915 23.4922ZM-161.047 33.5398C-111.893 60.8028 -73.5633 84.7604 -46.1627 106.734C-18.7871 128.687 -2.18274 148.766 3.29464 168.314C8.80177 187.967 3.00876 206.862 -13.8298 226.237C-30.6368 245.576 -58.5263 265.496 -97.4598 287.335L-97.9486 286.464L-98.4383 285.592C-59.5552 263.781 -31.9133 243.996 -15.3392 224.925C1.20279 205.891 6.64213 187.672 1.36924 168.854C-3.93364 149.929 -20.1228 130.18 -47.4138 108.294C-74.68 86.4285 -112.892 62.5363 -162.017 35.2891L-161.531 34.4143L-161.047 33.5398ZM-209.041 62.2046C-164.703 87.8761 -130.104 110.398 -105.329 130.995C-80.5774 151.573 -65.5051 170.331 -60.4295 188.51C-55.326 206.79 -60.3776 224.284 -75.3549 242.136C-90.2989 259.947 -115.188 278.203 -149.963 298.145L-150.46 297.277L-150.958 296.41C-116.236 276.499 -91.599 258.385 -76.8877 240.85C-62.2099 223.356 -57.4758 206.526 -62.3554 189.048C-67.263 171.47 -81.9426 153.037 -106.608 132.532C-131.25 112.045 -165.734 89.5904 -210.043 63.9358L-209.041 62.2046ZM-199.304 59.7483C-154.966 85.4198 -120.367 107.942 -95.5925 128.538C-70.8405 149.116 -55.7681 167.875 -50.6925 186.054C-45.589 204.333 -50.6406 221.828 -65.618 239.679C-80.562 257.491 -105.451 275.747 -140.226 295.688L-140.723 294.821L-141.221 293.953C-106.499 274.043 -81.8621 255.928 -67.1508 238.394C-52.4729 220.899 -47.7389 204.07 -52.6184 186.592C-57.526 169.014 -72.2057 150.581 -96.8706 130.075C-121.513 109.588 -155.997 87.1341 -200.306 61.4795L-199.304 59.7483ZM-186.062 56.4078C-141.724 82.0792 -107.124 104.601 -82.3501 125.198C-57.5981 145.776 -42.5258 164.534 -37.4501 182.713C-32.3467 200.993 -37.3983 218.487 -52.3756 236.339C-67.3196 254.151 -92.2085 272.407 -126.984 292.348L-127.481 291.48L-127.979 290.613C-93.2569 270.702 -68.6197 252.588 -53.9084 235.053C-39.2305 217.559 -34.4965 200.729 -39.376 183.251C-44.2836 165.674 -58.9633 147.24 -83.6282 126.735C-108.271 106.248 -142.755 83.7935 -187.063 58.1389L-186.062 56.4078ZM-158.019 49.3335C-113.681 75.005 -79.0811 97.5269 -54.3068 118.123C-29.5548 138.701 -14.4824 157.46 -9.4068 175.639C-4.30333 193.918 -9.35498 211.413 -24.3322 229.264C-39.2762 247.076 -64.1651 265.332 -98.9407 285.274L-99.4375 284.406L-99.9354 283.538C-65.2135 263.628 -40.5763 245.514 -25.865 227.979C-11.1873 210.484 -6.45314 193.655 -11.3327 176.177C-16.2403 158.599 -30.9199 140.166 -55.5849 119.66C-80.2277 99.1734 -114.711 76.7193 -159.02 51.0646L-158.019 49.3335Z" fill="#E94560"/>
</g>
<path fill-rule="evenodd" clip-rule="evenodd" d="M550.255 321.24C438.412 266.577 351.402 218.306 289.496 173.635C227.624 128.988 190.656 87.8194 179.178 47.3053C167.666 6.66665 181.861 -33.0302 221.535 -74.484C261.186 -115.914 326.413 -159.25 417.347 -207.295L418.28 -205.526C327.389 -157.504 262.399 -114.289 222.979 -73.101C183.583 -31.9364 169.855 7.05621 181.104 46.7602C192.388 86.5889 228.868 127.419 290.666 172.013C352.431 216.582 439.318 264.794 551.133 319.443L550.255 321.24ZM540.588 306.384C437.246 253.435 356.799 206.776 299.473 163.752C242.177 120.752 207.821 81.2709 196.918 42.6288C185.983 3.86889 198.704 -33.7872 234.862 -72.9039C270.994 -111.992 330.638 -152.671 413.878 -197.607L414.827 -195.846C331.633 -150.935 272.23 -110.383 236.331 -71.5461C200.458 -32.7386 188.161 4.22354 198.843 42.0859C209.559 80.0661 243.456 119.212 300.674 162.153C357.861 205.072 438.187 251.669 541.501 304.603L541.044 305.494L540.588 306.384ZM532.541 280.089C438.627 230.203 365.48 186.309 313.29 145.944C261.129 105.6 229.756 68.6704 219.63 32.6684C209.472 -3.44635 220.753 -38.3868 253.255 -74.5305C285.729 -110.642 339.481 -148.073 414.561 -189.303L415.042 -188.427L415.524 -187.55C340.491 -146.346 286.983 -109.046 254.742 -73.1933C222.53 -37.3736 211.642 -3.11906 221.555 32.1265C231.499 67.4847 262.434 104.081 314.514 144.362C366.566 184.622 439.593 228.452 533.478 278.323L533.009 279.207L532.541 280.089ZM529.284 262.512C443.278 214.809 376.247 172.91 328.348 134.498C280.473 96.1063 251.572 61.091 242.053 27.1177C232.503 -6.96195 242.508 -39.7738 271.864 -73.5514C301.188 -107.293 349.9 -142.1 418.013 -180.308L418.991 -178.564C350.928 -140.385 302.464 -105.712 273.373 -72.2391C244.314 -38.8025 234.663 -6.66572 243.978 26.5785C253.324 59.9293 281.809 94.6139 329.599 132.938C377.364 171.242 444.277 213.076 530.254 260.763L529.768 261.638L529.284 262.512ZM613.285 212.357C535.706 167.439 475.201 128.053 431.897 92.0507C388.614 56.0673 362.386 23.3628 353.567 -8.22446C344.72 -39.9121 353.442 -70.2758 379.539 -101.382C405.603 -132.448 449.062 -164.342 509.897 -199.227L510.893 -197.492C450.111 -162.638 406.902 -130.885 381.071 -100.096C355.273 -69.3475 346.871 -39.6484 355.494 -8.7629C364.145 22.223 389.98 54.6024 433.176 90.5134C476.349 126.406 536.737 165.726 614.286 210.627L613.785 211.492L613.285 212.357ZM596.245 216.656C518.667 171.738 458.162 132.351 414.857 96.3492C371.575 60.3657 345.346 27.6612 336.528 -3.92604C327.681 -35.6137 336.403 -65.9774 362.5 -97.0833C388.564 -128.149 432.022 -160.044 492.858 -194.928L493.853 -193.193C433.071 -158.339 389.863 -126.586 364.032 -95.7978C338.234 -65.0491 329.832 -35.35 338.454 -4.46448C347.105 26.5215 372.941 58.9009 416.136 94.8119C459.309 130.704 519.697 170.024 597.247 214.925L596.746 215.79L596.245 216.656ZM573.072 222.501C495.493 177.584 434.988 138.197 391.684 102.195C348.401 66.2115 322.173 33.507 313.354 1.91977C304.507 -29.7679 313.229 -60.1316 339.326 -91.2374C365.39 -122.303 408.849 -154.198 469.684 -189.083L470.68 -187.348C409.898 -152.493 366.69 -120.741 340.858 -89.952C315.061 -59.2033 306.658 -29.5042 315.281 1.38133C323.932 32.3673 349.767 64.7467 392.963 100.658C436.136 136.55 496.524 175.87 574.073 220.771L573.572 221.636L573.072 222.501ZM549.215 228.519C471.637 183.602 411.132 144.215 367.827 108.213C324.545 72.2296 298.317 39.525 289.498 7.9378C280.651 -23.7497 289.373 -54.1137 315.47 -85.2194C341.534 -116.285 384.993 -148.18 445.828 -183.064L446.824 -181.33C386.042 -146.475 342.833 -114.723 317.002 -83.934C291.205 -53.1853 282.802 -23.4861 291.425 7.39936C300.076 38.3853 325.911 70.7647 369.107 106.676C412.28 142.568 472.668 181.888 550.217 226.789L549.716 227.654L549.215 228.519ZM523.998 234.881C446.419 189.963 385.914 150.576 342.61 114.575C299.327 78.5911 273.099 45.8866 264.28 14.2993C255.433 -17.3883 264.155 -47.752 290.252 -78.8579C316.316 -109.924 359.775 -141.818 420.61 -176.703L421.606 -174.968C360.824 -140.114 317.616 -108.361 291.784 -77.5724C265.987 -46.8237 257.584 -17.1246 266.207 13.7609C274.858 44.7468 300.694 77.1262 343.889 113.037C387.062 148.93 447.45 188.25 524.999 233.151L524.498 234.015L523.998 234.881Z" fill="#E94560"/>
<path d="M37.28 121V107H38.5L44.9 117.92H44.26L50.6 107H51.82V121H50.4V109.22H50.74L44.9 119.22H44.2L38.32 109.22H38.7V121H37.28ZM62.6616 121V118.68L62.6016 118.3V114.42C62.6016 113.527 62.3482 112.84 61.8416 112.36C61.3482 111.88 60.6082 111.64 59.6216 111.64C58.9416 111.64 58.2949 111.753 57.6816 111.98C57.0682 112.207 56.5482 112.507 56.1216 112.88L55.4816 111.82C56.0149 111.367 56.6549 111.02 57.4016 110.78C58.1482 110.527 58.9349 110.4 59.7616 110.4C61.1216 110.4 62.1682 110.74 62.9016 111.42C63.6482 112.087 64.0216 113.107 64.0216 114.48V121H62.6616ZM59.0416 121.1C58.2549 121.1 57.5682 120.973 56.9816 120.72C56.4082 120.453 55.9682 120.093 55.6616 119.64C55.3549 119.173 55.2016 118.64 55.2016 118.04C55.2016 117.493 55.3282 117 55.5816 116.56C55.8482 116.107 56.2749 115.747 56.8616 115.48C57.4616 115.2 58.2616 115.06 59.2616 115.06H62.8816V116.12H59.3016C58.2882 116.12 57.5816 116.3 57.1816 116.66C56.7949 117.02 56.6016 117.467 56.6016 118C56.6016 118.6 56.8349 119.08 57.3016 119.44C57.7682 119.8 58.4216 119.98 59.2616 119.98C60.0616 119.98 60.7482 119.8 61.3216 119.44C61.9082 119.067 62.3349 118.533 62.6016 117.84L62.9216 118.82C62.6549 119.513 62.1882 120.067 61.5216 120.48C60.8682 120.893 60.0416 121.1 59.0416 121.1ZM67.8784 121V110.5H69.2384V113.36L69.0984 112.86C69.3918 112.06 69.8851 111.453 70.5784 111.04C71.2718 110.613 72.1318 110.4 73.1584 110.4V111.78C73.1051 111.78 73.0518 111.78 72.9984 111.78C72.9451 111.767 72.8918 111.76 72.8384 111.76C71.7318 111.76 70.8651 112.1 70.2384 112.78C69.6118 113.447 69.2984 114.4 69.2984 115.64V121H67.8784ZM76.8695 118.28L76.9095 116.46L83.4495 110.5H85.1895L80.5695 114.92L79.7695 115.6L76.8695 118.28ZM75.7495 121V106.16H77.1695V121H75.7495ZM83.8895 121L79.5095 115.54L80.4295 114.44L85.6295 121H83.8895ZM91.8111 121.1C90.7178 121.1 89.7578 120.873 88.9311 120.42C88.1044 119.953 87.4578 119.32 86.9911 118.52C86.5244 117.707 86.2911 116.78 86.2911 115.74C86.2911 114.7 86.5111 113.78 86.9511 112.98C87.4044 112.18 88.0178 111.553 88.7911 111.1C89.5778 110.633 90.4578 110.4 91.4311 110.4C92.4178 110.4 93.2911 110.627 94.0511 111.08C94.8244 111.52 95.4311 112.147 95.8711 112.96C96.3111 113.76 96.5311 114.687 96.5311 115.74C96.5311 115.807 96.5244 115.88 96.5111 115.96C96.5111 116.027 96.5111 116.1 96.5111 116.18H87.3711V115.12H95.7511L95.1911 115.54C95.1911 114.78 95.0244 114.107 94.6911 113.52C94.3711 112.92 93.9311 112.453 93.3711 112.12C92.8111 111.787 92.1644 111.62 91.4311 111.62C90.7111 111.62 90.0644 111.787 89.4911 112.12C88.9178 112.453 88.4711 112.92 88.1511 113.52C87.8311 114.12 87.6711 114.807 87.6711 115.58V115.8C87.6711 116.6 87.8444 117.307 88.1911 117.92C88.5511 118.52 89.0444 118.993 89.6711 119.34C90.3111 119.673 91.0378 119.84 91.8511 119.84C92.4911 119.84 93.0844 119.727 93.6311 119.5C94.1911 119.273 94.6711 118.927 95.0711 118.46L95.8711 119.38C95.4044 119.94 94.8178 120.367 94.1111 120.66C93.4178 120.953 92.6511 121.1 91.8111 121.1ZM102.741 121.1C101.755 121.1 100.995 120.833 100.461 120.3C99.9281 119.767 99.6614 119.013 99.6614 118.04V108.18H101.081V117.96C101.081 118.573 101.235 119.047 101.541 119.38C101.861 119.713 102.315 119.88 102.901 119.88C103.528 119.88 104.048 119.7 104.461 119.34L104.961 120.36C104.681 120.613 104.341 120.8 103.941 120.92C103.555 121.04 103.155 121.1 102.741 121.1ZM97.7814 111.68V110.5H104.281V111.68H97.7814ZM107.546 121V110.5H108.966V121H107.546ZM108.266 108.18C107.973 108.18 107.726 108.08 107.526 107.88C107.326 107.68 107.226 107.44 107.226 107.16C107.226 106.88 107.326 106.647 107.526 106.46C107.726 106.26 107.973 106.16 108.266 106.16C108.56 106.16 108.806 106.253 109.006 106.44C109.206 106.627 109.306 106.86 109.306 107.14C109.306 107.433 109.206 107.68 109.006 107.88C108.82 108.08 108.573 108.18 108.266 108.18ZM118.278 110.4C119.131 110.4 119.878 110.567 120.518 110.9C121.171 111.22 121.678 111.713 122.038 112.38C122.411 113.047 122.598 113.887 122.598 114.9V121H121.178V115.04C121.178 113.933 120.898 113.1 120.338 112.54C119.791 111.967 119.018 111.68 118.018 111.68C117.271 111.68 116.618 111.833 116.058 112.14C115.511 112.433 115.084 112.867 114.778 113.44C114.484 114 114.338 114.68 114.338 115.48V121H112.918V110.5H114.278V113.38L114.058 112.84C114.391 112.08 114.924 111.487 115.658 111.06C116.391 110.62 117.264 110.4 118.278 110.4ZM130.913 124.98C129.953 124.98 129.033 124.84 128.153 124.56C127.273 124.28 126.56 123.88 126.013 123.36L126.733 122.28C127.226 122.72 127.833 123.067 128.553 123.32C129.286 123.587 130.06 123.72 130.873 123.72C132.206 123.72 133.186 123.407 133.813 122.78C134.44 122.167 134.753 121.207 134.753 119.9V117.28L134.953 115.48L134.813 113.68V110.5H136.173V119.72C136.173 121.533 135.726 122.86 134.833 123.7C133.953 124.553 132.646 124.98 130.913 124.98ZM130.653 120.6C129.653 120.6 128.753 120.387 127.953 119.96C127.153 119.52 126.52 118.913 126.053 118.14C125.6 117.367 125.373 116.48 125.373 115.48C125.373 114.48 125.6 113.6 126.053 112.84C126.52 112.067 127.153 111.467 127.953 111.04C128.753 110.613 129.653 110.4 130.653 110.4C131.586 110.4 132.426 110.593 133.173 110.98C133.92 111.367 134.513 111.94 134.953 112.7C135.393 113.46 135.613 114.387 135.613 115.48C135.613 116.573 135.393 117.5 134.953 118.26C134.513 119.02 133.92 119.6 133.173 120C132.426 120.4 131.586 120.6 130.653 120.6ZM130.793 119.34C131.566 119.34 132.253 119.18 132.853 118.86C133.453 118.527 133.926 118.073 134.273 117.5C134.62 116.913 134.793 116.24 134.793 115.48C134.793 114.72 134.62 114.053 134.273 113.48C133.926 112.907 133.453 112.46 132.853 112.14C132.253 111.807 131.566 111.64 130.793 111.64C130.033 111.64 129.346 111.807 128.733 112.14C128.133 112.46 127.66 112.907 127.313 113.48C126.98 114.053 126.813 114.72 126.813 115.48C126.813 116.24 126.98 116.913 127.313 117.5C127.66 118.073 128.133 118.527 128.733 118.86C129.346 119.18 130.033 119.34 130.793 119.34ZM145.659 121V107H147.139V119.72H154.979V121H145.659ZM161.26 121.1C160.247 121.1 159.333 120.873 158.52 120.42C157.72 119.953 157.087 119.32 156.62 118.52C156.153 117.707 155.92 116.78 155.92 115.74C155.92 114.687 156.153 113.76 156.62 112.96C157.087 112.16 157.72 111.533 158.52 111.08C159.32 110.627 160.233 110.4 161.26 110.4C162.3 110.4 163.22 110.627 164.02 111.08C164.833 111.533 165.467 112.16 165.92 112.96C166.387 113.76 166.62 114.687 166.62 115.74C166.62 116.78 166.387 117.707 165.92 118.52C165.467 119.32 164.833 119.953 164.02 120.42C163.207 120.873 162.287 121.1 161.26 121.1ZM161.26 119.84C162.02 119.84 162.693 119.673 163.28 119.34C163.867 118.993 164.327 118.513 164.66 117.9C165.007 117.273 165.18 116.553 165.18 115.74C165.18 114.913 165.007 114.193 164.66 113.58C164.327 112.967 163.867 112.493 163.28 112.16C162.693 111.813 162.027 111.64 161.28 111.64C160.533 111.64 159.867 111.813 159.28 112.16C158.693 112.493 158.227 112.967 157.88 113.58C157.533 114.193 157.36 114.913 157.36 115.74C157.36 116.553 157.533 117.273 157.88 117.9C158.227 118.513 158.693 118.993 159.28 119.34C159.867 119.673 160.527 119.84 161.26 119.84ZM173.799 121.1C172.786 121.1 171.872 120.873 171.059 120.42C170.259 119.953 169.626 119.32 169.159 118.52C168.692 117.707 168.459 116.78 168.459 115.74C168.459 114.687 168.692 113.76 169.159 112.96C169.626 112.16 170.259 111.533 171.059 111.08C171.859 110.627 172.772 110.4 173.799 110.4C174.839 110.4 175.759 110.627 176.559 111.08C177.372 111.533 178.006 112.16 178.459 112.96C178.926 113.76 179.159 114.687 179.159 115.74C179.159 116.78 178.926 117.707 178.459 118.52C178.006 119.32 177.372 119.953 176.559 120.42C175.746 120.873 174.826 121.1 173.799 121.1ZM173.799 119.84C174.559 119.84 175.232 119.673 175.819 119.34C176.406 118.993 176.866 118.513 177.199 117.9C177.546 117.273 177.719 116.553 177.719 115.74C177.719 114.913 177.546 114.193 177.199 113.58C176.866 112.967 176.406 112.493 175.819 112.16C175.232 111.813 174.566 111.64 173.819 111.64C173.072 111.64 172.406 111.813 171.819 112.16C171.232 112.493 170.766 112.967 170.419 113.58C170.072 114.193 169.899 114.913 169.899 115.74C169.899 116.553 170.072 117.273 170.419 117.9C170.766 118.513 171.232 118.993 171.819 119.34C172.406 119.673 173.066 119.84 173.799 119.84ZM195.178 110.4C196.031 110.4 196.771 110.567 197.398 110.9C198.038 111.22 198.531 111.713 198.878 112.38C199.238 113.047 199.418 113.887 199.418 114.9V121H197.998V115.04C197.998 113.933 197.731 113.1 197.198 112.54C196.678 111.967 195.938 111.68 194.978 111.68C194.258 111.68 193.631 111.833 193.098 112.14C192.578 112.433 192.171 112.867 191.878 113.44C191.598 114 191.458 114.68 191.458 115.48V121H190.038V115.04C190.038 113.933 189.771 113.1 189.238 112.54C188.705 111.967 187.958 111.68 186.998 111.68C186.291 111.68 185.671 111.833 185.138 112.14C184.605 112.433 184.191 112.867 183.898 113.44C183.618 114 183.478 114.68 183.478 115.48V121H182.058V110.5H183.418V113.34L183.198 112.84C183.518 112.08 184.031 111.487 184.738 111.06C185.458 110.62 186.305 110.4 187.278 110.4C188.305 110.4 189.178 110.66 189.898 111.18C190.618 111.687 191.085 112.453 191.298 113.48L190.738 113.26C191.045 112.407 191.585 111.72 192.358 111.2C193.145 110.667 194.085 110.4 195.178 110.4Z" fill="#F0F0F0"/>
</g>
<defs>
<clipPath id="clip0_1106_145">
<rect width="238" height="228" fill="white"/>
</clipPath>
<clipPath id="clip1_1106_145">
<path d="M0 -41H66V228H20C8.95431 228 0 219.046 0 208V-41Z" fill="white"/>
</clipPath>
</defs>
</svg>
