<svg width="1200" height="600" viewBox="0 0 1200 600" fill="none" xmlns="http://www.w3.org/2000/svg">
<rect width="1200" height="600" fill="#17455E"/>
<g clip-path="url(#clip0_1094_86)">
<path d="M340.38 253.75C329.5 253.75 317.57 262.25 311.87 271.75C311 273.124 311 273.624 310.75 269.88C309.38 245.77 317.11 227.8 342.72 223.08C376 223 410.5 223 443.12 223C452.2 223.75 459.81 228.21 464.37 236.13L322.39 367.73C303.33 351.76 310.75 337.624 327.25 317.86L397.76 253.75H369H340.38Z" fill="white"/>
<path d="M428 282H464V295C464 306.046 455.046 315 444 315H428V282Z" fill="white"/>
<path d="M467 243.624C472.15 257.824 472.36 272.1 470.9 287.08C469.44 302.06 463 309.579 450.98 318.86C421.5 341.624 371.7 351.614 340 361.124C352.75 348.998 382.327 323.753 394.5 312.124C406.673 300.495 418.558 290.126 431 278.124C443.442 266.122 465.5 245.124 466 244.624C466.5 244.124 466.5 244.124 467 243.624ZM459 296.51L458.985 296.506L447.39 293.49L444.38 281.49L441.38 292.74L429.75 296.87L440.87 300.38L444.38 314.5L447.17 301.16L458.985 296.506L459 296.5V296.51Z" fill="#FF8423"/>
<path d="M471.25 341.13C469.28 357.76 451.52 374.72 434.9 376.03C403.56 378.51 368.53 374.43 336.89 375.59L329 375.624C329 375.624 332 373.624 333.5 372.624C335 371.624 343.634 367.056 355.5 364.624C367.366 362.192 455.66 351.73 470.87 308.5C471.24 305.24 472.29 332.36 471.25 341.13Z" fill="white"/>
<path d="M726.62 268L753.24 306.25V268H764.12L765.24 269.12V327.24H753.62L727 288.99C728.62 301.24 727.22 313.83 727.46 326.14L726.62 327.24H715.74V267.99H726.62V268Z" fill="white"/>
<path d="M552.25 327.25L573.62 269.5C574.51 268.43 583.01 268.47 584.9 268.7C588.03 269.08 605.48 320.73 608.5 327.26H595.75L591.28 314.85L568.67 314.97L564.25 327.26H552.25V327.25ZM587.5 304L579.62 284.49L572.5 304H587.5Z" fill="white"/>
<path d="M653 327.25L674.37 269.5C675.26 268.43 683.76 268.47 685.65 268.7C688.78 269.08 706.23 320.73 709.25 327.26H696.5L692.03 314.85L669.42 314.97L665 327.26H653V327.25ZM688.25 304L680.37 284.49L673.25 304H688.25Z" fill="white"/>
<path d="M546.25 268L545.84 277.72L518.5 316.75H547.75C545.96 320.26 548.23 324.68 546.63 327.25H502.75L503.32 317.69L531.25 279.25H504.63C504.37 279.25 503.8 280.58 502.75 278.87V267.99H546.25V268Z" fill="white"/>
<path d="M847.75 313.75C854.31 317.41 861.65 318.97 869.15 318.28C879.85 317.3 882.24 307.92 872.71 304.16C862.1 299.97 845.74 300.03 846.44 283.57C847.27 264 873.28 264.97 886.44 270.21L885.99 281.5C880.07 278.36 862.79 274.02 858.69 280.81C852.85 290.47 870.9 291.95 876.23 293.89C886.12 297.49 892.12 306.31 888.78 316.91C883.96 332.23 859.8 329.93 847.75 325.75V313.75Z" fill="white"/>
<path d="M614.5 268.75L630.99 313L646 268.75H657.25C654.72 275.36 639 326.93 635.9 327.31C633.85 327.56 623.22 327.56 622.36 326.52L601.75 268.76H614.5V268.75Z" fill="white"/>
<path d="M818.5 268V279.25H800.5L800.12 327.25H789.24L789.79 280.37L788.86 279.25H773.11C772.88 279.25 772.53 280.2 771.99 280V268H818.49H818.5Z" fill="white"/>
<path d="M836.5 268V327.25H826L825.44 269.09C825.77 267.04 834.48 268.36 836.5 268Z" fill="white"/>
</g>
<defs>
<clipPath id="clip0_1094_86">
<rect width="580" height="154" fill="white" transform="translate(310 223)"/>
</clipPath>
</defs>
</svg>
